<svg xmlns="http://www.w3.org/2000/svg" width="1400" height="900" viewBox="0 0 1400 900">
  <rect x="20" y="20" width="1360" height="860" fill="#ffffff" stroke="#d0d0d0" stroke-width="2"/>

  <text x="60" y="70" font-family="Arial" font-size="28" font-weight="700">Runtime Flows – Proposal Reference (Abstracted)</text>
  <text x="60" y="105" font-family="Arial" font-size="14" fill="#666666">Illustrative flow blocks for onboarding, decisioning and audit signals.</text>

  <rect x="80" y="160" width="280" height="90" rx="10" fill="#dfeaff" stroke="#b7c8ff"/>
  <text x="100" y="205" font-family="Arial" font-size="16" font-weight="700">Channel</text>
  <text x="100" y="230" font-family="Arial" font-size="13">Web / Mobile / Partner</text>

  <rect x="420" y="160" width="280" height="90" rx="10" fill="#dff7e5" stroke="#b5e7c1"/>
  <text x="440" y="205" font-family="Arial" font-size="16" font-weight="700">Edge & Access</text>
  <text x="440" y="230" font-family="Arial" font-size="13">WAF • Gateway • Identity</text>

  <rect x="760" y="140" width="520" height="130" rx="10" fill="#ffe9d1" stroke="#f2cfa3"/>
  <text x="780" y="190" font-family="Arial" font-size="16" font-weight="700">Domain Orchestration</text>
  <text x="780" y="215" font-family="Arial" font-size="13">Onboarding • Origination • Decisioning</text>
  <text x="780" y="240" font-family="Arial" font-size="13">Synchronous journey with async audit emission</text>

  <rect x="80" y="340" width="520" height="140" rx="10" fill="#f4f4ff" stroke="#d6d7ff"/>
  <text x="100" y="385" font-family="Arial" font-size="16" font-weight="700">Authoritative Data</text>
  <text x="100" y="410" font-family="Arial" font-size="13">Operational Store • Reference Data</text>
  <text x="100" y="435" font-family="Arial" font-size="13">Read/write separation where applicable</text>

  <rect x="660" y="340" width="620" height="140" rx="10" fill="#f4f4ff" stroke="#d6d7ff"/>
  <text x="680" y="385" font-family="Arial" font-size="16" font-weight="700">Event, Audit and Reporting</text>
  <text x="680" y="410" font-family="Arial" font-size="13">Immutable audit streams • Notification bus</text>
  <text x="680" y="435" font-family="Arial" font-size="13">Reporting marts isolated from OLTP pressure</text>

  <line x1="360" y1="205" x2="420" y2="205" stroke="#999999" stroke-width="3"/>
  <line x1="700" y1="205" x2="760" y2="205" stroke="#999999" stroke-width="3"/>

  <line x1="980" y1="270" x2="980" y2="340" stroke="#999999" stroke-width="3"/>
  <line x1="980" y1="340" x2="600" y2="410" stroke="#999999" stroke-width="2"/>
  <line x1="980" y1="340" x2="660" y2="410" stroke="#999999" stroke-width="2"/>
</svg>
