<svg xmlns="http://www.w3.org/2000/svg" width="1400" height="900" viewBox="0 0 1400 900">
  <rect x="20" y="20" width="1360" height="860" fill="#ffffff" stroke="#d0d0d0" stroke-width="2"/>

  <text x="60" y="70" font-family="Arial" font-size="28" font-weight="700">Reference Architecture – Digital Banking / Lending (Abstracted)</text>
  <text x="60" y="105" font-family="Arial" font-size="14" fill="#666666">Proposal-level view: scalable, audit-ready, cloud-native patterns without client-specific disclosure.</text>

  <rect x="60" y="140" width="1280" height="110" rx="10" fill="#f7faff" stroke="#c9d8ff"/>
  <text x="80" y="175" font-family="Arial" font-size="18" font-weight="700">Channels</text>
  <rect x="80" y="190" width="190" height="40" rx="6" fill="#dfeaff" stroke="#b7c8ff"/>
  <text x="95" y="216" font-family="Arial" font-size="14">Web / Admin Portal</text>
  <rect x="285" y="190" width="190" height="40" rx="6" fill="#dfeaff" stroke="#b7c8ff"/>
  <text x="300" y="216" font-family="Arial" font-size="14">Mobile App</text>
  <rect x="490" y="190" width="190" height="40" rx="6" fill="#dfeaff" stroke="#b7c8ff"/>
  <text x="505" y="216" font-family="Arial" font-size="14">Partner / Agent</text>
  <rect x="695" y="190" width="220" height="40" rx="6" fill="#dfeaff" stroke="#b7c8ff"/>
  <text x="710" y="216" font-family="Arial" font-size="14">Branch / Internal Ops</text>

  <rect x="60" y="270" width="1280" height="120" rx="10" fill="#f6fff7" stroke="#c7efcf"/>
  <text x="80" y="305" font-family="Arial" font-size="18" font-weight="700">Edge & Access</text>
  <rect x="80" y="320" width="170" height="45" rx="6" fill="#dff7e5" stroke="#b5e7c1"/>
  <text x="95" y="348" font-family="Arial" font-size="14">WAF / DDoS</text>
  <rect x="260" y="320" width="180" height="45" rx="6" fill="#dff7e5" stroke="#b5e7c1"/>
  <text x="275" y="348" font-family="Arial" font-size="14">API Gateway</text>
  <rect x="450" y="320" width="210" height="45" rx="6" fill="#dff7e5" stroke="#b5e7c1"/>
  <text x="465" y="348" font-family="Arial" font-size="14">Identity (OIDC/SAML)</text>
  <rect x="670" y="320" width="210" height="45" rx="6" fill="#dff7e5" stroke="#b5e7c1"/>
  <text x="685" y="348" font-family="Arial" font-size="14">Rate Limiting / BFF</text>

  <rect x="60" y="410" width="1280" height="210" rx="10" fill="#fff7ef" stroke="#f0d7b8"/>
  <text x="80" y="445" font-family="Arial" font-size="18" font-weight="700">Domain Services</text>
  <text x="80" y="470" font-family="Arial" font-size="12" fill="#666666">Domain-aligned capabilities. Scope varies by tender; boundaries can map to microservices or modular monolith segments.</text>

  <rect x="80" y="490" width="180" height="50" rx="6" fill="#ffe9d1" stroke="#f2cfa3"/>
  <text x="95" y="520" font-family="Arial" font-size="14">Onboarding / KYC</text>
  <rect x="270" y="490" width="180" height="50" rx="6" fill="#ffe9d1" stroke="#f2cfa3"/>
  <text x="285" y="520" font-family="Arial" font-size="14">Loan Origination</text>
  <rect x="460" y="490" width="180" height="50" rx="6" fill="#ffe9d1" stroke="#f2cfa3"/>
  <text x="475" y="520" font-family="Arial" font-size="14">Decisioning</text>
  <rect x="650" y="490" width="180" height="50" rx="6" fill="#ffe9d1" stroke="#f2cfa3"/>
  <text x="665" y="520" font-family="Arial" font-size="14">Pricing / Limits</text>
  <rect x="840" y="490" width="180" height="50" rx="6" fill="#ffe9d1" stroke="#f2cfa3"/>
  <text x="855" y="520" font-family="Arial" font-size="14">Payments</text>
  <rect x="1030" y="490" width="190" height="50" rx="6" fill="#ffe9d1" stroke="#f2cfa3"/>
  <text x="1045" y="520" font-family="Arial" font-size="14">Collections / Servicing</text>

  <rect x="80" y="550" width="220" height="50" rx="6" fill="#ffe9d1" stroke="#f2cfa3"/>
  <text x="95" y="580" font-family="Arial" font-size="14">Customer 360 / CRM</text>
  <rect x="310" y="550" width="220" height="50" rx="6" fill="#ffe9d1" stroke="#f2cfa3"/>
  <text x="325" y="580" font-family="Arial" font-size="14">Notifications</text>
  <rect x="540" y="550" width="220" height="50" rx="6" fill="#ffe9d1" stroke="#f2cfa3"/>
  <text x="555" y="580" font-family="Arial" font-size="14">Audit / Policy Engine</text>

  <rect x="60" y="640" width="1280" height="140" rx="10" fill="#f4f4ff" stroke="#d6d7ff"/>
  <text x="80" y="675" font-family="Arial" font-size="18" font-weight="700">Data & Platform Foundation</text>

  <rect x="80" y="695" width="200" height="55" rx="6" fill="#e8e9ff" stroke="#c9ccff"/>
  <text x="95" y="728" font-family="Arial" font-size="14">OLTP Store</text>
  <rect x="290" y="695" width="200" height="55" rx="6" fill="#e8e9ff" stroke="#c9ccff"/>
  <text x="305" y="728" font-family="Arial" font-size="14">Cache</text>
  <rect x="500" y="695" width="210" height="55" rx="6" fill="#e8e9ff" stroke="#c9ccff"/>
  <text x="515" y="728" font-family="Arial" font-size="14">Message / Event Bus</text>
  <rect x="720" y="695" width="210" height="55" rx="6" fill="#e8e9ff" stroke="#c9ccff"/>
  <text x="735" y="728" font-family="Arial" font-size="14">Object / Document Store</text>
  <rect x="940" y="695" width="210" height="55" rx="6" fill="#e8e9ff" stroke="#c9ccff"/>
  <text x="955" y="728" font-family="Arial" font-size="14">Reporting / Analytics</text>

  <rect x="60" y="790" width="1280" height="70" rx="10" fill="#f7fbff" stroke="#cfe3ff"/>
  <text x="80" y="830" font-family="Arial" font-size="16" font-weight="700">Cross-Cutting Controls</text>
  <text x="320" y="830" font-family="Arial" font-size="13">DevSecOps • IaC • Observability • SLO/Error Budgets • DR Runbooks • Data Residency • Access Audits</text>

  <line x1="200" y1="250" x2="200" y2="270" stroke="#cccccc" stroke-width="2"/>
  <line x1="360" y1="250" x2="360" y2="270" stroke="#cccccc" stroke-width="2"/>
  <line x1="560" y1="250" x2="560" y2="270" stroke="#cccccc" stroke-width="2"/>

  <line x1="260" y1="390" x2="260" y2="410" stroke="#cccccc" stroke-width="2"/>
  <line x1="440" y1="390" x2="440" y2="410" stroke="#cccccc" stroke-width="2"/>
  <line x1="660" y1="390" x2="660" y2="410" stroke="#cccccc" stroke-width="2"/>

  <line x1="200" y1="620" x2="200" y2="640" stroke="#cccccc" stroke-width="2"/>
  <line x1="520" y1="620" x2="520" y2="640" stroke="#cccccc" stroke-width="2"/>
  <line x1="940" y1="620" x2="940" y2="640" stroke="#cccccc" stroke-width="2"/>
</svg>
